HIERARCHY
ROOT Hips
{
    OFFSET 0.000000 0.000000 0.000000
    CHANNELS 6 Xposition Yposition Zposition Zrotation Xrotation Yrotation
    JOINT Spine
    {
        OFFSET -0.000000 7.897928 0.000000
        CHANNELS 3 Zrotation Xrotation Yrotation
        JOINT Spine1
        {
            OFFSET -0.000000 22.881742 0.000000
            CHANNELS 3 Zrotation Xrotation Yrotation
            JOINT Neck
            {
                OFFSET -0.000000 22.787771 2.071616
                CHANNELS 3 Zrotation Xrotation Yrotation
                JOINT Head
                {
                    OFFSET -0.000000 13.484266 -1.926324
                    CHANNELS 3 Zrotation Xrotation Yrotation
                    End Site
                    {
                        OFFSET -0.000000 24.079046 0.000000
                    }
                }
            }
            JOINT LeftShoulder
            {
                OFFSET 3.854963 21.096247 -0.110468
                CHANNELS 3 Zrotation Xrotation Yrotation
                JOINT LeftArm
                {
                    OFFSET 10.572188 0.000000 0.000000
                    CHANNELS 3 Zrotation Xrotation Yrotation
                    JOINT LeftForeArm
                    {
                        OFFSET 34.932854 0.000000 0.000000
                        CHANNELS 3 Zrotation Xrotation Yrotation
                        JOINT LeftHand
                        {
                            OFFSET 23.279285 0.000000 0.000000
                            CHANNELS 3 Zrotation Xrotation Yrotation
                            End Site
                            {
                                OFFSET 14.447429 0.000000 0.000000
                            }
                        }
                    }
                }
            }
            JOINT RightShoulder
            {
                OFFSET -3.825334 21.096247 -0.110468
                CHANNELS 3 Zrotation Xrotation Yrotation
                JOINT RightArm
                {
                    OFFSET -10.572188 0.000000 0.000000
                    CHANNELS 3 Zrotation Xrotation Yrotation
                    JOINT RightForeArm
                    {
                        OFFSET -34.932854 0.000000 0.000000
                        CHANNELS 3 Zrotation Xrotation Yrotation
                        JOINT RightHand
                        {
                            OFFSET -23.279285 0.000000 0.000000
                            CHANNELS 3 Zrotation Xrotation Yrotation
                            End Site
                            {
                                OFFSET -14.447429 0.000000 0.000000
                            }
                        }
                    }
                }
            }
        }
    }
    JOINT LeftUpLeg
    {
        OFFSET 9.631618 0.000000 0.000000
        CHANNELS 3 Zrotation Xrotation Yrotation
        JOINT LeftLeg
        {
            OFFSET -0.000000 -35.385456 0.000000
            CHANNELS 3 Zrotation Xrotation Yrotation
            JOINT LeftFoot
            {
                OFFSET -0.000000 -43.284000 0.000000
                CHANNELS 3 Zrotation Xrotation Yrotation
                JOINT LeftToeBase
                {
                    OFFSET -0.000000 -6.260552 14.447429
                    CHANNELS 3 Zrotation Xrotation Yrotation
                    End Site
                    {
                        OFFSET -0.000000 0.000000 3.852648
                    }
                }
            }
        }
    }
    JOINT RightUpLeg
    {
        OFFSET -9.631618 0.000000 0.000000
        CHANNELS 3 Zrotation Xrotation Yrotation
        JOINT RightLeg
        {
            OFFSET -0.000000 -35.385456 0.000000
            CHANNELS 3 Zrotation Xrotation Yrotation
            JOINT RightFoot
            {
                OFFSET -0.000000 -43.284000 0.000000
                CHANNELS 3 Zrotation Xrotation Yrotation
                JOINT RightToeBase
                {
                    OFFSET -0.000000 -6.260552 14.447429
                    CHANNELS 3 Zrotation Xrotation Yrotation
                    End Site
                    {
                        OFFSET -0.000000 0.000000 3.852648
                    }
                }
            }
        }
    }
}
MOTION
Frames:    4
Frame Time:    0.008333
57.121479    87.977325    19.903740    -2.036178    -1.216489    83.021591    -1.766307    -6.476937    0.746301    6.046461    10.026820    0.315408    -2.095088    8.856593    -10.800197    8.016475    -0.995841    -9.898798    7.294108    7.192506    7.716148    -38.710114    23.738741    -6.828414    9.329130    -19.480915    -43.742664    -9.795960    -16.256130    4.259590    -12.366786    4.190074    -2.032067    28.465094    18.894176    8.937373    -3.107373    -13.835490    20.873064    2.352354    -13.184096    4.735957    7.438867    2.455815    3.587723    -5.380061    8.468669    -2.110267    -1.307600    -11.288324    15.316130    0.000000    0.000000    0.000000    -6.650800    -5.317004    -1.493626    4.019763    14.167377    0.147725    3.706188    -7.783513    -9.105867    0.000000    0.000000    0.000000    
57.105984    87.969032    19.896559    -2.072183    -1.214756    83.022507    -1.848332    -6.549474    0.721246    6.243755    10.170030    0.270868    -2.260091    8.839857    -10.816458    8.082530    -1.000283    -9.893843    6.689400    7.454375    7.812514    -39.411663    24.448008    -7.159892    8.930855    -19.603659    -44.525703    -9.299057    -16.467485    4.491081    -12.158583    4.528134    -2.192314    29.179201    19.459545    9.449255    -3.015027    -14.358639    21.438831    3.029180    -13.682831    4.744908    7.422935    2.336302    3.625935    -5.339335    8.599681    -2.099277    -1.326094    -11.347302    15.270185    0.000000    0.000000    0.000000    -6.654059    -5.385078    -1.489879    4.022319    14.203313    0.145439    3.703519    -7.801665    -9.112331    0.000000    0.000000    0.000000    
57.090652    87.961388    19.887411    -2.109736    -1.210561    83.018562    -1.955909    -6.613193    0.700277    6.508699    10.283059    0.227066    -2.494790    8.832595    -10.841179    8.159364    -0.951282    -9.895191    6.013891    7.707385    7.895800    -40.118946    25.270035    -7.524075    8.705576    -19.766212    -45.138622    -9.254778    -16.682566    4.679645    -11.967072    4.908688    -2.318359    29.897245    20.159103    9.990343    -2.725354    -15.084879    22.128963    2.725640    -14.466195    4.480609    7.425180    2.275673    3.647635    -5.349660    8.628434    -2.102964    -1.289554    -11.368476    15.268491    0.000000    0.000000    0.000000    -6.660584    -5.464327    -1.491264    4.021912    14.259307    0.147687    3.716713    -7.824393    -9.111800    0.000000    0.000000    0.000000    
57.073929    87.956123    19.877439    -2.144343    -1.202538    83.030144    -2.076207    -6.690437    0.695104    6.765103    10.438214    0.197780    -2.588627    8.797477    -10.855993    8.079707    -0.969936    -9.913902    5.419057    7.913118    7.966921    -40.887062    25.998564    -7.981105    8.525140    -19.885355    -45.492157    -9.296773    -16.849569    4.698740    -11.723152    5.231785    -2.467538    30.614796    20.903250    10.437902    -2.519100    -15.765192    22.833057    2.560402    -15.184207    4.200733    7.417153    2.129851    3.618977    -5.348145    8.795063    -2.048650    -1.293898    -11.430459    15.249630    0.000000    0.000000    0.000000    -6.676250    -5.525732    -1.469781    4.039645    14.282665    0.104844    3.694561    -7.834239    -9.102984    0.000000    0.000000    0.000000    
